<svg xmlns="http://www.w3.org/2000/svg" width="1290" height="440" viewBox="0 0 1290 440"><rect width="100%" height="100%" fill="#fff"/><g transform="translate(0,0)"><text x="8" y="16" font-family="sans-serif" font-size="13" font-weight="700">1. Développé couché</text><text x="8" y="30" font-family="sans-serif" font-size="10" fill="#888">banc · barre</text><g transform="translate(0,34) scale(1.02)"><rect x="0" y="0" width="200" height="170" fill="#f6f6f4"/><line x1="4" y1="150" x2="196" y2="150" style="stroke:#bbb" stroke-width="3" stroke-linecap="round"/><rect x="44" y="110" width="104" height="7" rx="2" style="stroke:#999;fill:none"/><line x1="56" y1="117" x2="52" y2="150" style="stroke:#999;fill:none" stroke-width="3" stroke-linecap="round"/><line x1="138" y1="117" x2="142" y2="150" style="stroke:#999;fill:none" stroke-width="3" stroke-linecap="round"/><polyline points="86,107 61.5,118.4 66,144 76.4,147.8" style="stroke:#bcc3cc" fill="none" stroke-width="5.5" stroke-linecap="round" stroke-linejoin="round"/><polyline points="122,107 102.6,96.7 123.5,98.9" style="stroke:#bcc3cc" fill="none" stroke-width="5.5" stroke-linecap="round" stroke-linejoin="round"/><polyline points="86,107 61.5,118.4 66,144 76.4,147.8" style="stroke:#1b2028" fill="none" stroke-width="7" stroke-linecap="round" stroke-linejoin="round"/><polyline points="86,107 122,107" style="stroke:#1b2028" fill="none" stroke-width="9" stroke-linecap="round" stroke-linejoin="round"/><circle cx="139" cy="107" r="9" style="fill:#1b2028"/><polyline points="122,107 102.6,96.7 123.5,98.9" style="stroke:#1b2028" fill="none" stroke-width="7" stroke-linecap="round" stroke-linejoin="round"/><line x1="100.5" y1="98.9" x2="146.5" y2="98.9" style="stroke:#e08c10;fill:none" stroke-width="3.4" stroke-linecap="round"/><ellipse cx="103.5" cy="98.9" rx="3.2" ry="9" style="fill:#e08c10"/><ellipse cx="143.5" cy="98.9" rx="3.2" ry="9" style="fill:#e08c10"/><text x="4" y="166" font-family="sans-serif" font-size="9" fill="#aaa">départ</text></g><g transform="translate(210,34) scale(1.02)"><rect x="0" y="0" width="200" height="170" fill="#f6f6f4"/><line x1="4" y1="150" x2="196" y2="150" style="stroke:#bbb" stroke-width="3" stroke-linecap="round"/><rect x="44" y="110" width="104" height="7" rx="2" style="stroke:#999;fill:none"/><line x1="56" y1="117" x2="52" y2="150" style="stroke:#999;fill:none" stroke-width="3" stroke-linecap="round"/><line x1="138" y1="117" x2="142" y2="150" style="stroke:#999;fill:none" stroke-width="3" stroke-linecap="round"/><polyline points="86,107 61.5,118.4 66,144 76.4,147.8" style="stroke:#bcc3cc" fill="none" stroke-width="5.5" stroke-linecap="round" stroke-linejoin="round"/><polyline points="122,107 126.6,85.5 124.4,64.6" style="stroke:#bcc3cc" fill="none" stroke-width="5.5" stroke-linecap="round" stroke-linejoin="round"/><polyline points="86,107 61.5,118.4 66,144 76.4,147.8" style="stroke:#1b2028" fill="none" stroke-width="7" stroke-linecap="round" stroke-linejoin="round"/><polyline points="86,107 122,107" style="stroke:#1b2028" fill="none" stroke-width="9" stroke-linecap="round" stroke-linejoin="round"/><circle cx="139" cy="107" r="9" style="fill:#1b2028"/><polyline points="122,107 126.6,85.5 124.4,64.6" style="stroke:#1b2028" fill="none" stroke-width="7" stroke-linecap="round" stroke-linejoin="round"/><line x1="101.4" y1="64.6" x2="147.4" y2="64.6" style="stroke:#e08c10;fill:none" stroke-width="3.4" stroke-linecap="round"/><ellipse cx="104.4" cy="64.6" rx="3.2" ry="9" style="fill:#e08c10"/><ellipse cx="144.4" cy="64.6" rx="3.2" ry="9" style="fill:#e08c10"/><text x="4" y="166" font-family="sans-serif" font-size="9" fill="#aaa">fin</text></g></g><g transform="translate(430,0)"><text x="8" y="16" font-family="sans-serif" font-size="13" font-weight="700">2. Tractions</text><text x="8" y="30" font-family="sans-serif" font-size="10" fill="#888">barre-fixe · barre-fixe</text><g transform="translate(0,34) scale(1.02)"><rect x="0" y="0" width="200" height="170" fill="#f6f6f4"/><line x1="4" y1="150" x2="196" y2="150" style="stroke:#bbb" stroke-width="3" stroke-linecap="round"/><line x1="52" y1="22" x2="148" y2="22" style="stroke:#999;fill:none" stroke-width="5" stroke-linecap="round"/><line x1="56" y1="22" x2="56" y2="150" style="stroke:#999;fill:none" stroke-width="3" stroke-linecap="round"/><line x1="144" y1="22" x2="144" y2="150" style="stroke:#999;fill:none" stroke-width="3" stroke-linecap="round"/><polyline points="100,101 100.9,128 86.4,149.5 96.7,153.3" style="stroke:#bcc3cc" fill="none" stroke-width="5.5" stroke-linecap="round" stroke-linejoin="round"/><polyline points="100,65 89,45.9 83.6,25.7" style="stroke:#bcc3cc" fill="none" stroke-width="5.5" stroke-linecap="round" stroke-linejoin="round"/><polyline points="100,101 104.7,127.6 88,147.5 98.3,151.3" style="stroke:#1b2028" fill="none" stroke-width="7" stroke-linecap="round" stroke-linejoin="round"/><polyline points="100,101 100,65" style="stroke:#1b2028" fill="none" stroke-width="9" stroke-linecap="round" stroke-linejoin="round"/><circle cx="100" cy="48" r="9" style="fill:#1b2028"/><polyline points="100,65 111,45.9 116.4,25.7" style="stroke:#1b2028" fill="none" stroke-width="7" stroke-linecap="round" stroke-linejoin="round"/><line x1="60" y1="22" x2="140" y2="22" style="stroke:#e08c10;fill:none" stroke-width="4" stroke-linecap="round"/><text x="4" y="166" font-family="sans-serif" font-size="9" fill="#aaa">départ</text></g><g transform="translate(210,34) scale(1.02)"><rect x="0" y="0" width="200" height="170" fill="#f6f6f4"/><line x1="4" y1="150" x2="196" y2="150" style="stroke:#bbb" stroke-width="3" stroke-linecap="round"/><line x1="52" y1="22" x2="148" y2="22" style="stroke:#999;fill:none" stroke-width="5" stroke-linecap="round"/><line x1="56" y1="22" x2="56" y2="150" style="stroke:#999;fill:none" stroke-width="3" stroke-linecap="round"/><line x1="144" y1="22" x2="144" y2="150" style="stroke:#999;fill:none" stroke-width="3" stroke-linecap="round"/><polyline points="100,81 100.9,108 86.4,129.5 96.7,133.3" style="stroke:#bcc3cc" fill="none" stroke-width="5.5" stroke-linecap="round" stroke-linejoin="round"/><polyline points="100,45 79.3,37.5 89.8,19.3" style="stroke:#bcc3cc" fill="none" stroke-width="5.5" stroke-linecap="round" stroke-linejoin="round"/><polyline points="100,81 104.7,107.6 88,127.5 98.3,131.3" style="stroke:#1b2028" fill="none" stroke-width="7" stroke-linecap="round" stroke-linejoin="round"/><polyline points="100,81 100,45" style="stroke:#1b2028" fill="none" stroke-width="9" stroke-linecap="round" stroke-linejoin="round"/><circle cx="100" cy="28" r="9" style="fill:#1b2028"/><polyline points="100,45 120.7,37.5 110.2,19.3" style="stroke:#1b2028" fill="none" stroke-width="7" stroke-linecap="round" stroke-linejoin="round"/><line x1="60" y1="22" x2="140" y2="22" style="stroke:#e08c10;fill:none" stroke-width="4" stroke-linecap="round"/><text x="4" y="166" font-family="sans-serif" font-size="9" fill="#aaa">fin</text></g></g><g transform="translate(860,0)"><text x="8" y="16" font-family="sans-serif" font-size="13" font-weight="700">3. Développé militaire</text><text x="8" y="30" font-family="sans-serif" font-size="10" fill="#888">banc-assis · halteres</text><g transform="translate(0,34) scale(1.02)"><rect x="0" y="0" width="200" height="170" fill="#f6f6f4"/><line x1="4" y1="150" x2="196" y2="150" style="stroke:#bbb" stroke-width="3" stroke-linecap="round"/><rect x="66" y="108" width="66" height="7" rx="2" style="stroke:#999;fill:none"/><line x1="128" y1="108" x2="128" y2="62" style="stroke:#999;fill:none" stroke-width="4" stroke-linecap="round"/><line x1="78" y1="115" x2="78" y2="150" style="stroke:#999;fill:none" stroke-width="3" stroke-linecap="round"/><line x1="126" y1="115" x2="126" y2="150" style="stroke:#999;fill:none" stroke-width="3" stroke-linecap="round"/><polyline points="100,122 127,122 127,148 137.8,146.1" style="stroke:#bcc3cc" fill="none" stroke-width="5.5" stroke-linecap="round" stroke-linejoin="round"/><polyline points="101.3,86 84.4,71.9 94.9,53.7" style="stroke:#bcc3cc" fill="none" stroke-width="5.5" stroke-linecap="round" stroke-linejoin="round"/><polyline points="100,122 127,122 127,148 137.8,146.1" style="stroke:#1b2028" fill="none" stroke-width="7" stroke-linecap="round" stroke-linejoin="round"/><polyline points="100,122 101.3,86" style="stroke:#1b2028" fill="none" stroke-width="9" stroke-linecap="round" stroke-linejoin="round"/><circle cx="101.8" cy="69" r="9" style="fill:#1b2028"/><polyline points="101.3,86 84.4,71.9 94.9,53.7" style="stroke:#1b2028" fill="none" stroke-width="7" stroke-linecap="round" stroke-linejoin="round"/><line x1="86.9" y1="53.7" x2="102.9" y2="53.7" style="stroke:#e08c10;fill:none" stroke-width="3" stroke-linecap="round"/><rect x="84.3" y="48.7" width="5.2" height="10" rx="2" style="fill:#e08c10"/><rect x="100.3" y="48.7" width="5.2" height="10" rx="2" style="fill:#e08c10"/><line x1="86.9" y1="53.7" x2="102.9" y2="53.7" style="stroke:#e08c10;fill:none" stroke-width="3" stroke-linecap="round"/><rect x="84.3" y="48.7" width="5.2" height="10" rx="2" style="fill:#e08c10"/><rect x="100.3" y="48.7" width="5.2" height="10" rx="2" style="fill:#e08c10"/><text x="4" y="166" font-family="sans-serif" font-size="9" fill="#aaa">départ</text></g><g transform="translate(210,34) scale(1.02)"><rect x="0" y="0" width="200" height="170" fill="#f6f6f4"/><line x1="4" y1="150" x2="196" y2="150" style="stroke:#bbb" stroke-width="3" stroke-linecap="round"/><rect x="66" y="108" width="66" height="7" rx="2" style="stroke:#999;fill:none"/><line x1="128" y1="108" x2="128" y2="62" style="stroke:#999;fill:none" stroke-width="4" stroke-linecap="round"/><line x1="78" y1="115" x2="78" y2="150" style="stroke:#999;fill:none" stroke-width="3" stroke-linecap="round"/><line x1="126" y1="115" x2="126" y2="150" style="stroke:#999;fill:none" stroke-width="3" stroke-linecap="round"/><polyline points="100,122 127,122 127,148 137.8,146.1" style="stroke:#bcc3cc" fill="none" stroke-width="5.5" stroke-linecap="round" stroke-linejoin="round"/><polyline points="101.3,86 99,64.1 98.2,43.2" style="stroke:#bcc3cc" fill="none" stroke-width="5.5" stroke-linecap="round" stroke-linejoin="round"/><polyline points="100,122 127,122 127,148 137.8,146.1" style="stroke:#1b2028" fill="none" stroke-width="7" stroke-linecap="round" stroke-linejoin="round"/><polyline points="100,122 101.3,86" style="stroke:#1b2028" fill="none" stroke-width="9" stroke-linecap="round" stroke-linejoin="round"/><circle cx="101.8" cy="69" r="9" style="fill:#1b2028"/><polyline points="101.3,86 99,64.1 98.2,43.2" style="stroke:#1b2028" fill="none" stroke-width="7" stroke-linecap="round" stroke-linejoin="round"/><line x1="90.2" y1="43.2" x2="106.2" y2="43.2" style="stroke:#e08c10;fill:none" stroke-width="3" stroke-linecap="round"/><rect x="87.6" y="38.2" width="5.2" height="10" rx="2" style="fill:#e08c10"/><rect x="103.6" y="38.2" width="5.2" height="10" rx="2" style="fill:#e08c10"/><line x1="90.2" y1="43.2" x2="106.2" y2="43.2" style="stroke:#e08c10;fill:none" stroke-width="3" stroke-linecap="round"/><rect x="87.6" y="38.2" width="5.2" height="10" rx="2" style="fill:#e08c10"/><rect x="103.6" y="38.2" width="5.2" height="10" rx="2" style="fill:#e08c10"/><text x="4" y="166" font-family="sans-serif" font-size="9" fill="#aaa">fin</text></g></g><g transform="translate(0,220)"><text x="8" y="16" font-family="sans-serif" font-size="13" font-weight="700">4. Curl barre</text><text x="8" y="30" font-family="sans-serif" font-size="10" fill="#888">sol · barre</text><g transform="translate(0,34) scale(1.02)"><rect x="0" y="0" width="200" height="170" fill="#f6f6f4"/><line x1="4" y1="150" x2="196" y2="150" style="stroke:#bbb" stroke-width="3" stroke-linecap="round"/><polyline points="100,97 100,124 100,150 111,150" style="stroke:#bcc3cc" fill="none" stroke-width="5.5" stroke-linecap="round" stroke-linejoin="round"/><polyline points="100,61 101.5,82.9 102.3,103.9" style="stroke:#bcc3cc" fill="none" stroke-width="5.5" stroke-linecap="round" stroke-linejoin="round"/><polyline points="100,97 100,124 100,150 111,150" style="stroke:#1b2028" fill="none" stroke-width="7" stroke-linecap="round" stroke-linejoin="round"/><polyline points="100,97 100,61" style="stroke:#1b2028" fill="none" stroke-width="9" stroke-linecap="round" stroke-linejoin="round"/><circle cx="100" cy="44" r="9" style="fill:#1b2028"/><polyline points="100,61 101.5,82.9 102.3,103.9" style="stroke:#1b2028" fill="none" stroke-width="7" stroke-linecap="round" stroke-linejoin="round"/><line x1="79.3" y1="103.9" x2="125.3" y2="103.9" style="stroke:#e08c10;fill:none" stroke-width="3.4" stroke-linecap="round"/><ellipse cx="82.3" cy="103.9" rx="3.2" ry="9" style="fill:#e08c10"/><ellipse cx="122.3" cy="103.9" rx="3.2" ry="9" style="fill:#e08c10"/><text x="4" y="166" font-family="sans-serif" font-size="9" fill="#aaa">départ</text></g><g transform="translate(210,34) scale(1.02)"><rect x="0" y="0" width="200" height="170" fill="#f6f6f4"/><line x1="4" y1="150" x2="196" y2="150" style="stroke:#bbb" stroke-width="3" stroke-linecap="round"/><polyline points="100,97 100,124 100,150 111,150" style="stroke:#bcc3cc" fill="none" stroke-width="5.5" stroke-linecap="round" stroke-linejoin="round"/><polyline points="100,61 106.1,82.1 125.2,73.6" style="stroke:#bcc3cc" fill="none" stroke-width="5.5" stroke-linecap="round" stroke-linejoin="round"/><polyline points="100,97 100,124 100,150 111,150" style="stroke:#1b2028" fill="none" stroke-width="7" stroke-linecap="round" stroke-linejoin="round"/><polyline points="100,97 100,61" style="stroke:#1b2028" fill="none" stroke-width="9" stroke-linecap="round" stroke-linejoin="round"/><circle cx="100" cy="44" r="9" style="fill:#1b2028"/><polyline points="100,61 106.1,82.1 125.2,73.6" style="stroke:#1b2028" fill="none" stroke-width="7" stroke-linecap="round" stroke-linejoin="round"/><line x1="102.2" y1="73.6" x2="148.2" y2="73.6" style="stroke:#e08c10;fill:none" stroke-width="3.4" stroke-linecap="round"/><ellipse cx="105.2" cy="73.6" rx="3.2" ry="9" style="fill:#e08c10"/><ellipse cx="145.2" cy="73.6" rx="3.2" ry="9" style="fill:#e08c10"/><text x="4" y="166" font-family="sans-serif" font-size="9" fill="#aaa">fin</text></g></g><g transform="translate(430,220)"><text x="8" y="16" font-family="sans-serif" font-size="13" font-weight="700">5. Squat barre</text><text x="8" y="30" font-family="sans-serif" font-size="10" fill="#888">sol · barre</text><g transform="translate(0,34) scale(1.02)"><rect x="0" y="0" width="200" height="170" fill="#f6f6f4"/><line x1="4" y1="150" x2="196" y2="150" style="stroke:#bbb" stroke-width="3" stroke-linecap="round"/><polyline points="100,122 74.6,131.2 92,150.6 103,150.6" style="stroke:#bcc3cc" fill="none" stroke-width="5.5" stroke-linecap="round" stroke-linejoin="round"/><polyline points="116.9,90.2 100,76.1 118.2,65.6" style="stroke:#bcc3cc" fill="none" stroke-width="5.5" stroke-linecap="round" stroke-linejoin="round"/><polyline points="100,122 74.6,131.2 92,150.6 103,150.6" style="stroke:#1b2028" fill="none" stroke-width="7" stroke-linecap="round" stroke-linejoin="round"/><polyline points="100,122 116.9,90.2" style="stroke:#1b2028" fill="none" stroke-width="9" stroke-linecap="round" stroke-linejoin="round"/><circle cx="124.9" cy="75.2" r="9" style="fill:#1b2028"/><polyline points="116.9,90.2 100,76.1 118.2,65.6" style="stroke:#1b2028" fill="none" stroke-width="7" stroke-linecap="round" stroke-linejoin="round"/><line x1="95.2" y1="65.6" x2="141.2" y2="65.6" style="stroke:#e08c10;fill:none" stroke-width="3.4" stroke-linecap="round"/><ellipse cx="98.2" cy="65.6" rx="3.2" ry="9" style="fill:#e08c10"/><ellipse cx="138.2" cy="65.6" rx="3.2" ry="9" style="fill:#e08c10"/><text x="4" y="166" font-family="sans-serif" font-size="9" fill="#aaa">départ</text></g><g transform="translate(210,34) scale(1.02)"><rect x="0" y="0" width="200" height="170" fill="#f6f6f4"/><line x1="4" y1="150" x2="196" y2="150" style="stroke:#bbb" stroke-width="3" stroke-linecap="round"/><polyline points="100,97 100,124 100,150 111,150" style="stroke:#bcc3cc" fill="none" stroke-width="5.5" stroke-linecap="round" stroke-linejoin="round"/><polyline points="100,61 83.1,46.9 101.3,36.4" style="stroke:#bcc3cc" fill="none" stroke-width="5.5" stroke-linecap="round" stroke-linejoin="round"/><polyline points="100,97 100,124 100,150 111,150" style="stroke:#1b2028" fill="none" stroke-width="7" stroke-linecap="round" stroke-linejoin="round"/><polyline points="100,97 100,61" style="stroke:#1b2028" fill="none" stroke-width="9" stroke-linecap="round" stroke-linejoin="round"/><circle cx="100" cy="44" r="9" style="fill:#1b2028"/><polyline points="100,61 83.1,46.9 101.3,36.4" style="stroke:#1b2028" fill="none" stroke-width="7" stroke-linecap="round" stroke-linejoin="round"/><line x1="78.3" y1="36.4" x2="124.3" y2="36.4" style="stroke:#e08c10;fill:none" stroke-width="3.4" stroke-linecap="round"/><ellipse cx="81.3" cy="36.4" rx="3.2" ry="9" style="fill:#e08c10"/><ellipse cx="121.3" cy="36.4" rx="3.2" ry="9" style="fill:#e08c10"/><text x="4" y="166" font-family="sans-serif" font-size="9" fill="#aaa">fin</text></g></g><g transform="translate(860,220)"><text x="8" y="16" font-family="sans-serif" font-size="13" font-weight="700">6. Gainage</text><text x="8" y="30" font-family="sans-serif" font-size="10" fill="#888">sol · corps</text><g transform="translate(0,34) scale(1.02)"><rect x="0" y="0" width="200" height="170" fill="#f6f6f4"/><line x1="4" y1="150" x2="196" y2="150" style="stroke:#bbb" stroke-width="3" stroke-linecap="round"/><polyline points="95,134 68.4,138.7 42.7,142.3 48.2,151.8" style="stroke:#bcc3cc" fill="none" stroke-width="5.5" stroke-linecap="round" stroke-linejoin="round"/><polyline points="130.5,127.7 127.8,149.6 148.8,149.6" style="stroke:#bcc3cc" fill="none" stroke-width="5.5" stroke-linecap="round" stroke-linejoin="round"/><polyline points="95,134 68.4,138.7 42.7,142.3 48.2,151.8" style="stroke:#1b2028" fill="none" stroke-width="7" stroke-linecap="round" stroke-linejoin="round"/><polyline points="95,134 130.5,127.7" style="stroke:#1b2028" fill="none" stroke-width="9" stroke-linecap="round" stroke-linejoin="round"/><circle cx="147.2" cy="124.8" r="9" style="fill:#1b2028"/><polyline points="130.5,127.7 127.8,149.6 148.8,149.6" style="stroke:#1b2028" fill="none" stroke-width="7" stroke-linecap="round" stroke-linejoin="round"/><text x="4" y="166" font-family="sans-serif" font-size="9" fill="#aaa">départ</text></g><g transform="translate(210,34) scale(1.02)"><rect x="0" y="0" width="200" height="170" fill="#f6f6f4"/><line x1="4" y1="150" x2="196" y2="150" style="stroke:#bbb" stroke-width="3" stroke-linecap="round"/><polyline points="95,132 68.4,136.7 42.7,140.3 48.2,149.8" style="stroke:#bcc3cc" fill="none" stroke-width="5.5" stroke-linecap="round" stroke-linejoin="round"/><polyline points="130.3,125.1 128.4,147 149.4,147" style="stroke:#bcc3cc" fill="none" stroke-width="5.5" stroke-linecap="round" stroke-linejoin="round"/><polyline points="95,132 68.4,136.7 42.7,140.3 48.2,149.8" style="stroke:#1b2028" fill="none" stroke-width="7" stroke-linecap="round" stroke-linejoin="round"/><polyline points="95,132 130.3,125.1" style="stroke:#1b2028" fill="none" stroke-width="9" stroke-linecap="round" stroke-linejoin="round"/><circle cx="147" cy="121.9" r="9" style="fill:#1b2028"/><polyline points="130.3,125.1 128.4,147 149.4,147" style="stroke:#1b2028" fill="none" stroke-width="7" stroke-linecap="round" stroke-linejoin="round"/><text x="4" y="166" font-family="sans-serif" font-size="9" fill="#aaa">fin</text></g></g></svg>