<svg xmlns="http://www.w3.org/2000/svg" width="1290" height="220" viewBox="0 0 1290 220"><rect width="100%" height="100%" fill="#fff"/><g transform="translate(0,0)"><text x="8" y="16" font-family="sans-serif" font-size="13" font-weight="700">1. Élévations frontales</text><text x="8" y="30" font-family="sans-serif" font-size="10" fill="#888">sol · halteres</text><g transform="translate(0,34) scale(1.02)"><rect x="0" y="0" width="200" height="170" fill="#f6f6f4"/><line x1="4" y1="150" x2="196" y2="150" style="stroke:#bbb" stroke-width="3" stroke-linecap="round"/><ellipse cx="100" cy="149" rx="24" ry="4.5" style="fill:#00000024"/><circle cx="94" cy="61" r="7" style="fill:#bcc3cc"/><polyline points="94,61 95.5,82.9" style="stroke:#bcc3cc" fill="none" stroke-width="8" stroke-linecap="round" stroke-linejoin="round"/><polyline points="95.5,82.9 95.5,103.9" style="stroke:#bcc3cc" fill="none" stroke-width="6.5" stroke-linecap="round" stroke-linejoin="round"/><circle cx="95.5" cy="82.9" r="4" style="fill:#bcc3cc"/><circle cx="95.5" cy="103.9" r="3.8" style="fill:#bcc3cc"/><circle cx="94" cy="97" r="7" style="fill:#bcc3cc"/><polyline points="94,97 94,124" style="stroke:#bcc3cc" fill="none" stroke-width="11" stroke-linecap="round" stroke-linejoin="round"/><polyline points="94,124 94,150" style="stroke:#bcc3cc" fill="none" stroke-width="8" stroke-linecap="round" stroke-linejoin="round"/><circle cx="94" cy="124" r="5.5" style="fill:#bcc3cc"/><polyline points="94,150 105,150" style="stroke:#bcc3cc" fill="none" stroke-width="6" stroke-linecap="round" stroke-linejoin="round"/><circle cx="94" cy="150" r="3" style="fill:#bcc3cc"/><polyline points="100,97 100,61" style="stroke:#1b2028" fill="none" stroke-width="16" stroke-linecap="round" stroke-linejoin="round"/><polyline points="98,94.4 98,58.4" style="stroke:#ffffff30;fill:none" fill="none" stroke-width="5.44" stroke-linecap="round" stroke-linejoin="round"/><polyline points="100,61 100,53" style="stroke:#1b2028" fill="none" stroke-width="10" stroke-linecap="round" stroke-linejoin="round"/><circle cx="100" cy="44" r="9" style="fill:#1b2028"/><circle cx="97.1" cy="40.8" r="3.8" style="fill:#ffffff33"/><circle cx="106" cy="97" r="7" style="fill:#1b2028"/><polyline points="106,97 106,124" style="stroke:#1b2028" fill="none" stroke-width="11" stroke-linecap="round" stroke-linejoin="round"/><polyline points="106,124 106,150" style="stroke:#1b2028" fill="none" stroke-width="8" stroke-linecap="round" stroke-linejoin="round"/><circle cx="106" cy="124" r="5.5" style="fill:#1b2028"/><polyline points="104,94.4 104,121.4" style="stroke:#ffffff30;fill:none" fill="none" stroke-width="3.74" stroke-linecap="round" stroke-linejoin="round"/><polyline points="104,121.4 104,147.4" style="stroke:#ffffff30;fill:none" fill="none" stroke-width="2.72" stroke-linecap="round" stroke-linejoin="round"/><polyline points="106,150 117,150" style="stroke:#1b2028" fill="none" stroke-width="6" stroke-linecap="round" stroke-linejoin="round"/><polyline points="104,147.4 115,147.4" style="stroke:#ffffff30;fill:none" fill="none" stroke-width="2.04" stroke-linecap="round" stroke-linejoin="round"/><circle cx="106" cy="150" r="3" style="fill:#1b2028"/><circle cx="106" cy="61" r="7" style="fill:#1b2028"/><polyline points="106,61 107.5,82.9" style="stroke:#1b2028" fill="none" stroke-width="8" stroke-linecap="round" stroke-linejoin="round"/><polyline points="107.5,82.9 107.5,103.9" style="stroke:#1b2028" fill="none" stroke-width="6.5" stroke-linecap="round" stroke-linejoin="round"/><circle cx="107.5" cy="82.9" r="4" style="fill:#1b2028"/><polyline points="104,58.4 105.5,80.3" style="stroke:#ffffff30;fill:none" fill="none" stroke-width="2.72" stroke-linecap="round" stroke-linejoin="round"/><polyline points="105.5,80.3 105.5,101.3" style="stroke:#ffffff30;fill:none" fill="none" stroke-width="2.21" stroke-linecap="round" stroke-linejoin="round"/><circle cx="107.5" cy="103.9" r="3.8" style="fill:#1b2028"/><line x1="87.5" y1="103.9" x2="103.5" y2="103.9" style="stroke:#e08c10;fill:none" stroke-width="3" stroke-linecap="round"/><rect x="84.9" y="98.9" width="5.2" height="10" rx="2" style="fill:#e08c10"/><rect x="100.9" y="98.9" width="5.2" height="10" rx="2" style="fill:#e08c10"/><line x1="99.5" y1="103.9" x2="115.5" y2="103.9" style="stroke:#e08c10;fill:none" stroke-width="3" stroke-linecap="round"/><rect x="96.9" y="98.9" width="5.2" height="10" rx="2" style="fill:#e08c10"/><rect x="112.9" y="98.9" width="5.2" height="10" rx="2" style="fill:#e08c10"/><text x="4" y="166" font-family="sans-serif" font-size="9" fill="#aaa">départ</text></g><g transform="translate(210,34) scale(1.02)"><rect x="0" y="0" width="200" height="170" fill="#f6f6f4"/><line x1="4" y1="150" x2="196" y2="150" style="stroke:#bbb" stroke-width="3" stroke-linecap="round"/><ellipse cx="100" cy="149" rx="24" ry="4.5" style="fill:#00000024"/><circle cx="94" cy="61" r="7" style="fill:#bcc3cc"/><polyline points="94,61 115.9,59.5" style="stroke:#bcc3cc" fill="none" stroke-width="8" stroke-linecap="round" stroke-linejoin="round"/><polyline points="115.9,59.5 136.9,59.5" style="stroke:#bcc3cc" fill="none" stroke-width="6.5" stroke-linecap="round" stroke-linejoin="round"/><circle cx="115.9" cy="59.5" r="4" style="fill:#bcc3cc"/><circle cx="136.9" cy="59.5" r="3.8" style="fill:#bcc3cc"/><circle cx="94" cy="97" r="7" style="fill:#bcc3cc"/><polyline points="94,97 94,124" style="stroke:#bcc3cc" fill="none" stroke-width="11" stroke-linecap="round" stroke-linejoin="round"/><polyline points="94,124 94,150" style="stroke:#bcc3cc" fill="none" stroke-width="8" stroke-linecap="round" stroke-linejoin="round"/><circle cx="94" cy="124" r="5.5" style="fill:#bcc3cc"/><polyline points="94,150 105,150" style="stroke:#bcc3cc" fill="none" stroke-width="6" stroke-linecap="round" stroke-linejoin="round"/><circle cx="94" cy="150" r="3" style="fill:#bcc3cc"/><polyline points="100,97 100,61" style="stroke:#1b2028" fill="none" stroke-width="16" stroke-linecap="round" stroke-linejoin="round"/><polyline points="98,94.4 98,58.4" style="stroke:#ffffff30;fill:none" fill="none" stroke-width="5.44" stroke-linecap="round" stroke-linejoin="round"/><polyline points="100,61 100,53" style="stroke:#1b2028" fill="none" stroke-width="10" stroke-linecap="round" stroke-linejoin="round"/><circle cx="100" cy="44" r="9" style="fill:#1b2028"/><circle cx="97.1" cy="40.8" r="3.8" style="fill:#ffffff33"/><circle cx="106" cy="97" r="7" style="fill:#1b2028"/><polyline points="106,97 106,124" style="stroke:#1b2028" fill="none" stroke-width="11" stroke-linecap="round" stroke-linejoin="round"/><polyline points="106,124 106,150" style="stroke:#1b2028" fill="none" stroke-width="8" stroke-linecap="round" stroke-linejoin="round"/><circle cx="106" cy="124" r="5.5" style="fill:#1b2028"/><polyline points="104,94.4 104,121.4" style="stroke:#ffffff30;fill:none" fill="none" stroke-width="3.74" stroke-linecap="round" stroke-linejoin="round"/><polyline points="104,121.4 104,147.4" style="stroke:#ffffff30;fill:none" fill="none" stroke-width="2.72" stroke-linecap="round" stroke-linejoin="round"/><polyline points="106,150 117,150" style="stroke:#1b2028" fill="none" stroke-width="6" stroke-linecap="round" stroke-linejoin="round"/><polyline points="104,147.4 115,147.4" style="stroke:#ffffff30;fill:none" fill="none" stroke-width="2.04" stroke-linecap="round" stroke-linejoin="round"/><circle cx="106" cy="150" r="3" style="fill:#1b2028"/><circle cx="106" cy="61" r="7" style="fill:#1b2028"/><polyline points="106,61 127.9,59.5" style="stroke:#1b2028" fill="none" stroke-width="8" stroke-linecap="round" stroke-linejoin="round"/><polyline points="127.9,59.5 148.9,59.5" style="stroke:#1b2028" fill="none" stroke-width="6.5" stroke-linecap="round" stroke-linejoin="round"/><circle cx="127.9" cy="59.5" r="4" style="fill:#1b2028"/><polyline points="104,58.4 125.9,56.9" style="stroke:#ffffff30;fill:none" fill="none" stroke-width="2.72" stroke-linecap="round" stroke-linejoin="round"/><polyline points="125.9,56.9 146.9,56.9" style="stroke:#ffffff30;fill:none" fill="none" stroke-width="2.21" stroke-linecap="round" stroke-linejoin="round"/><circle cx="148.9" cy="59.5" r="3.8" style="fill:#1b2028"/><line x1="128.9" y1="59.5" x2="144.9" y2="59.5" style="stroke:#e08c10;fill:none" stroke-width="3" stroke-linecap="round"/><rect x="126.3" y="54.5" width="5.2" height="10" rx="2" style="fill:#e08c10"/><rect x="142.3" y="54.5" width="5.2" height="10" rx="2" style="fill:#e08c10"/><line x1="140.9" y1="59.5" x2="156.9" y2="59.5" style="stroke:#e08c10;fill:none" stroke-width="3" stroke-linecap="round"/><rect x="138.3" y="54.5" width="5.2" height="10" rx="2" style="fill:#e08c10"/><rect x="154.3" y="54.5" width="5.2" height="10" rx="2" style="fill:#e08c10"/><text x="4" y="166" font-family="sans-serif" font-size="9" fill="#aaa">fin</text></g></g><g transform="translate(430,0)"><text x="8" y="16" font-family="sans-serif" font-size="13" font-weight="700">2. Mollets assis</text><text x="8" y="30" font-family="sans-serif" font-size="10" fill="#888">banc-assis · corps</text><g transform="translate(0,34) scale(1.02)"><rect x="0" y="0" width="200" height="170" fill="#f6f6f4"/><line x1="4" y1="150" x2="196" y2="150" style="stroke:#bbb" stroke-width="3" stroke-linecap="round"/><rect x="66" y="108" width="66" height="7" rx="2" style="stroke:#999;fill:none"/><line x1="128" y1="108" x2="128" y2="62" style="stroke:#999;fill:none" stroke-width="4" stroke-linecap="round"/><line x1="78" y1="115" x2="78" y2="150" style="stroke:#999;fill:none" stroke-width="3" stroke-linecap="round"/><line x1="126" y1="115" x2="126" y2="150" style="stroke:#999;fill:none" stroke-width="3" stroke-linecap="round"/><ellipse cx="100" cy="149" rx="24" ry="4.5" style="fill:#00000024"/><circle cx="95.3" cy="86" r="7" style="fill:#bcc3cc"/><polyline points="95.3,86 NaN,NaN" style="stroke:#bcc3cc" fill="none" stroke-width="8" stroke-linecap="round" stroke-linejoin="round"/><polyline points="NaN,NaN NaN,NaN" style="stroke:#bcc3cc" fill="none" stroke-width="6.5" stroke-linecap="round" stroke-linejoin="round"/><circle cx="NaN" cy="NaN" r="4" style="fill:#bcc3cc"/><circle cx="NaN" cy="NaN" r="3.8" style="fill:#bcc3cc"/><circle cx="94" cy="122" r="7" style="fill:#bcc3cc"/><polyline points="94,122 121,122" style="stroke:#bcc3cc" fill="none" stroke-width="11" stroke-linecap="round" stroke-linejoin="round"/><polyline points="121,122 121,148" style="stroke:#bcc3cc" fill="none" stroke-width="8" stroke-linecap="round" stroke-linejoin="round"/><circle cx="121" cy="122" r="5.5" style="fill:#bcc3cc"/><polyline points="121,148 131.7,145.3" style="stroke:#bcc3cc" fill="none" stroke-width="6" stroke-linecap="round" stroke-linejoin="round"/><circle cx="121" cy="148" r="3" style="fill:#bcc3cc"/><polyline points="100,122 101.3,86" style="stroke:#1b2028" fill="none" stroke-width="16" stroke-linecap="round" stroke-linejoin="round"/><polyline points="98,119.4 99.3,83.4" style="stroke:#ffffff30;fill:none" fill="none" stroke-width="5.44" stroke-linecap="round" stroke-linejoin="round"/><polyline points="101.3,86 101.5,78" style="stroke:#1b2028" fill="none" stroke-width="10" stroke-linecap="round" stroke-linejoin="round"/><circle cx="101.8" cy="69" r="9" style="fill:#1b2028"/><circle cx="99" cy="65.8" r="3.8" style="fill:#ffffff33"/><circle cx="106" cy="122" r="7" style="fill:#1b2028"/><polyline points="106,122 133,122" style="stroke:#1b2028" fill="none" stroke-width="11" stroke-linecap="round" stroke-linejoin="round"/><polyline points="133,122 133,148" style="stroke:#1b2028" fill="none" stroke-width="8" stroke-linecap="round" stroke-linejoin="round"/><circle cx="133" cy="122" r="5.5" style="fill:#1b2028"/><polyline points="104,119.4 131,119.4" style="stroke:#ffffff30;fill:none" fill="none" stroke-width="3.74" stroke-linecap="round" stroke-linejoin="round"/><polyline points="131,119.4 131,145.4" style="stroke:#ffffff30;fill:none" fill="none" stroke-width="2.72" stroke-linecap="round" stroke-linejoin="round"/><polyline points="133,148 143.7,145.3" style="stroke:#1b2028" fill="none" stroke-width="6" stroke-linecap="round" stroke-linejoin="round"/><polyline points="131,145.4 141.7,142.7" style="stroke:#ffffff30;fill:none" fill="none" stroke-width="2.04" stroke-linecap="round" stroke-linejoin="round"/><circle cx="133" cy="148" r="3" style="fill:#1b2028"/><circle cx="107.3" cy="86" r="7" style="fill:#1b2028"/><polyline points="107.3,86 NaN,NaN" style="stroke:#1b2028" fill="none" stroke-width="8" stroke-linecap="round" stroke-linejoin="round"/><polyline points="NaN,NaN NaN,NaN" style="stroke:#1b2028" fill="none" stroke-width="6.5" stroke-linecap="round" stroke-linejoin="round"/><circle cx="NaN" cy="NaN" r="4" style="fill:#1b2028"/><polyline points="105.3,83.4 NaN,NaN" style="stroke:#ffffff30;fill:none" fill="none" stroke-width="2.72" stroke-linecap="round" stroke-linejoin="round"/><polyline points="NaN,NaN NaN,NaN" style="stroke:#ffffff30;fill:none" fill="none" stroke-width="2.21" stroke-linecap="round" stroke-linejoin="round"/><circle cx="NaN" cy="NaN" r="3.8" style="fill:#1b2028"/><text x="4" y="166" font-family="sans-serif" font-size="9" fill="#aaa">départ</text></g><g transform="translate(210,34) scale(1.02)"><rect x="0" y="0" width="200" height="170" fill="#f6f6f4"/><line x1="4" y1="150" x2="196" y2="150" style="stroke:#bbb" stroke-width="3" stroke-linecap="round"/><rect x="66" y="108" width="66" height="7" rx="2" style="stroke:#999;fill:none"/><line x1="128" y1="108" x2="128" y2="62" style="stroke:#999;fill:none" stroke-width="4" stroke-linecap="round"/><line x1="78" y1="115" x2="78" y2="150" style="stroke:#999;fill:none" stroke-width="3" stroke-linecap="round"/><line x1="126" y1="115" x2="126" y2="150" style="stroke:#999;fill:none" stroke-width="3" stroke-linecap="round"/><ellipse cx="100" cy="149" rx="24" ry="4.5" style="fill:#00000024"/><circle cx="95.3" cy="86" r="7" style="fill:#bcc3cc"/><polyline points="95.3,86 NaN,NaN" style="stroke:#bcc3cc" fill="none" stroke-width="8" stroke-linecap="round" stroke-linejoin="round"/><polyline points="NaN,NaN NaN,NaN" style="stroke:#bcc3cc" fill="none" stroke-width="6.5" stroke-linecap="round" stroke-linejoin="round"/><circle cx="NaN" cy="NaN" r="4" style="fill:#bcc3cc"/><circle cx="NaN" cy="NaN" r="3.8" style="fill:#bcc3cc"/><circle cx="94" cy="122" r="7" style="fill:#bcc3cc"/><polyline points="94,122 121,122" style="stroke:#bcc3cc" fill="none" stroke-width="11" stroke-linecap="round" stroke-linejoin="round"/><polyline points="121,122 121,148" style="stroke:#bcc3cc" fill="none" stroke-width="8" stroke-linecap="round" stroke-linejoin="round"/><circle cx="121" cy="122" r="5.5" style="fill:#bcc3cc"/><polyline points="121,148 130.5,153.5" style="stroke:#bcc3cc" fill="none" stroke-width="6" stroke-linecap="round" stroke-linejoin="round"/><circle cx="121" cy="148" r="3" style="fill:#bcc3cc"/><polyline points="100,122 101.3,86" style="stroke:#1b2028" fill="none" stroke-width="16" stroke-linecap="round" stroke-linejoin="round"/><polyline points="98,119.4 99.3,83.4" style="stroke:#ffffff30;fill:none" fill="none" stroke-width="5.44" stroke-linecap="round" stroke-linejoin="round"/><polyline points="101.3,86 101.5,78" style="stroke:#1b2028" fill="none" stroke-width="10" stroke-linecap="round" stroke-linejoin="round"/><circle cx="101.8" cy="69" r="9" style="fill:#1b2028"/><circle cx="99" cy="65.8" r="3.8" style="fill:#ffffff33"/><circle cx="106" cy="122" r="7" style="fill:#1b2028"/><polyline points="106,122 133,122" style="stroke:#1b2028" fill="none" stroke-width="11" stroke-linecap="round" stroke-linejoin="round"/><polyline points="133,122 133,148" style="stroke:#1b2028" fill="none" stroke-width="8" stroke-linecap="round" stroke-linejoin="round"/><circle cx="133" cy="122" r="5.5" style="fill:#1b2028"/><polyline points="104,119.4 131,119.4" style="stroke:#ffffff30;fill:none" fill="none" stroke-width="3.74" stroke-linecap="round" stroke-linejoin="round"/><polyline points="131,119.4 131,145.4" style="stroke:#ffffff30;fill:none" fill="none" stroke-width="2.72" stroke-linecap="round" stroke-linejoin="round"/><polyline points="133,148 142.5,153.5" style="stroke:#1b2028" fill="none" stroke-width="6" stroke-linecap="round" stroke-linejoin="round"/><polyline points="131,145.4 140.5,150.9" style="stroke:#ffffff30;fill:none" fill="none" stroke-width="2.04" stroke-linecap="round" stroke-linejoin="round"/><circle cx="133" cy="148" r="3" style="fill:#1b2028"/><circle cx="107.3" cy="86" r="7" style="fill:#1b2028"/><polyline points="107.3,86 NaN,NaN" style="stroke:#1b2028" fill="none" stroke-width="8" stroke-linecap="round" stroke-linejoin="round"/><polyline points="NaN,NaN NaN,NaN" style="stroke:#1b2028" fill="none" stroke-width="6.5" stroke-linecap="round" stroke-linejoin="round"/><circle cx="NaN" cy="NaN" r="4" style="fill:#1b2028"/><polyline points="105.3,83.4 NaN,NaN" style="stroke:#ffffff30;fill:none" fill="none" stroke-width="2.72" stroke-linecap="round" stroke-linejoin="round"/><polyline points="NaN,NaN NaN,NaN" style="stroke:#ffffff30;fill:none" fill="none" stroke-width="2.21" stroke-linecap="round" stroke-linejoin="round"/><circle cx="NaN" cy="NaN" r="3.8" style="fill:#1b2028"/><text x="4" y="166" font-family="sans-serif" font-size="9" fill="#aaa">fin</text></g></g></svg>