<svg xmlns="http://www.w3.org/2000/svg" width="1290" height="440" viewBox="0 0 1290 440"><rect width="100%" height="100%" fill="#fff"/><g transform="translate(0,0)"><text x="8" y="16" font-family="sans-serif" font-size="13" font-weight="700">1. Pull-over haltère</text><text x="8" y="30" font-family="sans-serif" font-size="10" fill="#888">banc · haltere-un</text><g transform="translate(0,34) scale(1.02)"><rect x="0" y="0" width="200" height="170" fill="#f6f6f4"/><line x1="4" y1="150" x2="196" y2="150" style="stroke:#bbb" stroke-width="3" stroke-linecap="round"/><rect x="44" y="110" width="104" height="7" rx="2" style="stroke:#999;fill:none"/><line x1="56" y1="117" x2="52" y2="150" style="stroke:#999;fill:none" stroke-width="3" stroke-linecap="round"/><line x1="138" y1="117" x2="142" y2="150" style="stroke:#999;fill:none" stroke-width="3" stroke-linecap="round"/><polyline points="86,107 61.5,118.4 66,144 76.4,147.8" style="stroke:#bcc3cc" fill="none" stroke-width="5.5" stroke-linecap="round" stroke-linejoin="round"/><polyline points="122,107 142.9,100.2 162.9,93.7" style="stroke:#bcc3cc" fill="none" stroke-width="5.5" stroke-linecap="round" stroke-linejoin="round"/><polyline points="86,107 61.5,118.4 66,144 76.4,147.8" style="stroke:#1b2028" fill="none" stroke-width="7" stroke-linecap="round" stroke-linejoin="round"/><polyline points="86,107 122,107" style="stroke:#1b2028" fill="none" stroke-width="9" stroke-linecap="round" stroke-linejoin="round"/><circle cx="139" cy="107" r="9" style="fill:#1b2028"/><polyline points="122,107 142.9,100.2 162.9,93.7" style="stroke:#1b2028" fill="none" stroke-width="7" stroke-linecap="round" stroke-linejoin="round"/><line x1="154.9" y1="93.7" x2="170.9" y2="93.7" style="stroke:#e08c10;fill:none" stroke-width="3" stroke-linecap="round"/><rect x="152.3" y="88.7" width="5.2" height="10" rx="2" style="fill:#e08c10"/><rect x="168.3" y="88.7" width="5.2" height="10" rx="2" style="fill:#e08c10"/><text x="4" y="166" font-family="sans-serif" font-size="9" fill="#aaa">départ</text></g><g transform="translate(210,34) scale(1.02)"><rect x="0" y="0" width="200" height="170" fill="#f6f6f4"/><line x1="4" y1="150" x2="196" y2="150" style="stroke:#bbb" stroke-width="3" stroke-linecap="round"/><rect x="44" y="110" width="104" height="7" rx="2" style="stroke:#999;fill:none"/><line x1="56" y1="117" x2="52" y2="150" style="stroke:#999;fill:none" stroke-width="3" stroke-linecap="round"/><line x1="138" y1="117" x2="142" y2="150" style="stroke:#999;fill:none" stroke-width="3" stroke-linecap="round"/><polyline points="86,107 61.5,118.4 66,144 76.4,147.8" style="stroke:#bcc3cc" fill="none" stroke-width="5.5" stroke-linecap="round" stroke-linejoin="round"/><polyline points="122,107 119.7,85.1 117.5,64.2" style="stroke:#bcc3cc" fill="none" stroke-width="5.5" stroke-linecap="round" stroke-linejoin="round"/><polyline points="86,107 61.5,118.4 66,144 76.4,147.8" style="stroke:#1b2028" fill="none" stroke-width="7" stroke-linecap="round" stroke-linejoin="round"/><polyline points="86,107 122,107" style="stroke:#1b2028" fill="none" stroke-width="9" stroke-linecap="round" stroke-linejoin="round"/><circle cx="139" cy="107" r="9" style="fill:#1b2028"/><polyline points="122,107 119.7,85.1 117.5,64.2" style="stroke:#1b2028" fill="none" stroke-width="7" stroke-linecap="round" stroke-linejoin="round"/><line x1="109.5" y1="64.2" x2="125.5" y2="64.2" style="stroke:#e08c10;fill:none" stroke-width="3" stroke-linecap="round"/><rect x="106.9" y="59.2" width="5.2" height="10" rx="2" style="fill:#e08c10"/><rect x="122.9" y="59.2" width="5.2" height="10" rx="2" style="fill:#e08c10"/><text x="4" y="166" font-family="sans-serif" font-size="9" fill="#aaa">fin</text></g></g><g transform="translate(430,0)"><text x="8" y="16" font-family="sans-serif" font-size="13" font-weight="700">2. Kickback triceps</text><text x="8" y="30" font-family="sans-serif" font-size="10" fill="#888">sol · haltere-un</text><g transform="translate(0,34) scale(1.02)"><rect x="0" y="0" width="200" height="170" fill="#f6f6f4"/><line x1="4" y1="150" x2="196" y2="150" style="stroke:#bbb" stroke-width="3" stroke-linecap="round"/><polyline points="104,100 101.6,126.9 102.6,152.9 113.6,152.9" style="stroke:#bcc3cc" fill="none" stroke-width="5.5" stroke-linecap="round" stroke-linejoin="round"/><polyline points="131.6,76.9 114.7,91 134.7,97.5" style="stroke:#bcc3cc" fill="none" stroke-width="5.5" stroke-linecap="round" stroke-linejoin="round"/><polyline points="104,100 101.6,126.9 102.6,152.9 113.6,152.9" style="stroke:#1b2028" fill="none" stroke-width="7" stroke-linecap="round" stroke-linejoin="round"/><polyline points="104,100 131.6,76.9" style="stroke:#1b2028" fill="none" stroke-width="9" stroke-linecap="round" stroke-linejoin="round"/><circle cx="144.6" cy="65.9" r="9" style="fill:#1b2028"/><polyline points="131.6,76.9 114.7,91 134.7,97.5" style="stroke:#1b2028" fill="none" stroke-width="7" stroke-linecap="round" stroke-linejoin="round"/><line x1="126.7" y1="97.5" x2="142.7" y2="97.5" style="stroke:#e08c10;fill:none" stroke-width="3" stroke-linecap="round"/><rect x="124.1" y="92.5" width="5.2" height="10" rx="2" style="fill:#e08c10"/><rect x="140.1" y="92.5" width="5.2" height="10" rx="2" style="fill:#e08c10"/><text x="4" y="166" font-family="sans-serif" font-size="9" fill="#aaa">départ</text></g><g transform="translate(210,34) scale(1.02)"><rect x="0" y="0" width="200" height="170" fill="#f6f6f4"/><line x1="4" y1="150" x2="196" y2="150" style="stroke:#bbb" stroke-width="3" stroke-linecap="round"/><polyline points="104,100 101.6,126.9 102.6,152.9 113.6,152.9" style="stroke:#bcc3cc" fill="none" stroke-width="5.5" stroke-linecap="round" stroke-linejoin="round"/><polyline points="131.6,76.9 114.7,91 94.8,97.5" style="stroke:#bcc3cc" fill="none" stroke-width="5.5" stroke-linecap="round" stroke-linejoin="round"/><polyline points="104,100 101.6,126.9 102.6,152.9 113.6,152.9" style="stroke:#1b2028" fill="none" stroke-width="7" stroke-linecap="round" stroke-linejoin="round"/><polyline points="104,100 131.6,76.9" style="stroke:#1b2028" fill="none" stroke-width="9" stroke-linecap="round" stroke-linejoin="round"/><circle cx="144.6" cy="65.9" r="9" style="fill:#1b2028"/><polyline points="131.6,76.9 114.7,91 94.8,97.5" style="stroke:#1b2028" fill="none" stroke-width="7" stroke-linecap="round" stroke-linejoin="round"/><line x1="86.8" y1="97.5" x2="102.8" y2="97.5" style="stroke:#e08c10;fill:none" stroke-width="3" stroke-linecap="round"/><rect x="84.2" y="92.5" width="5.2" height="10" rx="2" style="fill:#e08c10"/><rect x="100.2" y="92.5" width="5.2" height="10" rx="2" style="fill:#e08c10"/><text x="4" y="166" font-family="sans-serif" font-size="9" fill="#aaa">fin</text></g></g><g transform="translate(860,0)"><text x="8" y="16" font-family="sans-serif" font-size="13" font-weight="700">3. Front squat</text><text x="8" y="30" font-family="sans-serif" font-size="10" fill="#888">sol · barre</text><g transform="translate(0,34) scale(1.02)"><rect x="0" y="0" width="200" height="170" fill="#f6f6f4"/><line x1="4" y1="150" x2="196" y2="150" style="stroke:#bbb" stroke-width="3" stroke-linecap="round"/><polyline points="100,122 74.3,130.3 92.4,149 103.4,149" style="stroke:#bcc3cc" fill="none" stroke-width="5.5" stroke-linecap="round" stroke-linejoin="round"/><polyline points="109.9,87.4 122.9,69.6 111.7,51.8" style="stroke:#bcc3cc" fill="none" stroke-width="5.5" stroke-linecap="round" stroke-linejoin="round"/><polyline points="100,122 74.3,130.3 92.4,149 103.4,149" style="stroke:#1b2028" fill="none" stroke-width="7" stroke-linecap="round" stroke-linejoin="round"/><polyline points="100,122 109.9,87.4" style="stroke:#1b2028" fill="none" stroke-width="9" stroke-linecap="round" stroke-linejoin="round"/><circle cx="114.6" cy="71.1" r="9" style="fill:#1b2028"/><polyline points="109.9,87.4 122.9,69.6 111.7,51.8" style="stroke:#1b2028" fill="none" stroke-width="7" stroke-linecap="round" stroke-linejoin="round"/><line x1="88.7" y1="51.8" x2="134.7" y2="51.8" style="stroke:#e08c10;fill:none" stroke-width="3.4" stroke-linecap="round"/><ellipse cx="91.7" cy="51.8" rx="3.2" ry="9" style="fill:#e08c10"/><ellipse cx="131.7" cy="51.8" rx="3.2" ry="9" style="fill:#e08c10"/><text x="4" y="166" font-family="sans-serif" font-size="9" fill="#aaa">départ</text></g><g transform="translate(210,34) scale(1.02)"><rect x="0" y="0" width="200" height="170" fill="#f6f6f4"/><line x1="4" y1="150" x2="196" y2="150" style="stroke:#bbb" stroke-width="3" stroke-linecap="round"/><polyline points="100,97 100,124 100,150 111,150" style="stroke:#bcc3cc" fill="none" stroke-width="5.5" stroke-linecap="round" stroke-linejoin="round"/><polyline points="100,61 112.9,43.2 101.8,25.4" style="stroke:#bcc3cc" fill="none" stroke-width="5.5" stroke-linecap="round" stroke-linejoin="round"/><polyline points="100,97 100,124 100,150 111,150" style="stroke:#1b2028" fill="none" stroke-width="7" stroke-linecap="round" stroke-linejoin="round"/><polyline points="100,97 100,61" style="stroke:#1b2028" fill="none" stroke-width="9" stroke-linecap="round" stroke-linejoin="round"/><circle cx="100" cy="44" r="9" style="fill:#1b2028"/><polyline points="100,61 112.9,43.2 101.8,25.4" style="stroke:#1b2028" fill="none" stroke-width="7" stroke-linecap="round" stroke-linejoin="round"/><line x1="78.8" y1="25.4" x2="124.8" y2="25.4" style="stroke:#e08c10;fill:none" stroke-width="3.4" stroke-linecap="round"/><ellipse cx="81.8" cy="25.4" rx="3.2" ry="9" style="fill:#e08c10"/><ellipse cx="121.8" cy="25.4" rx="3.2" ry="9" style="fill:#e08c10"/><text x="4" y="166" font-family="sans-serif" font-size="9" fill="#aaa">fin</text></g></g><g transform="translate(0,220)"><text x="8" y="16" font-family="sans-serif" font-size="13" font-weight="700">4. Soulevé de terre sumo</text><text x="8" y="30" font-family="sans-serif" font-size="10" fill="#888">sol · barre</text><g transform="translate(0,34) scale(1.02)"><rect x="0" y="0" width="200" height="170" fill="#f6f6f4"/><line x1="4" y1="150" x2="196" y2="150" style="stroke:#bbb" stroke-width="3" stroke-linecap="round"/><polyline points="100,112 108.3,137.7 95.3,160.2 106.3,160.2" style="stroke:#bcc3cc" fill="none" stroke-width="5.5" stroke-linecap="round" stroke-linejoin="round"/><polyline points="119.1,81.5 119.8,103.5 119.8,124.5" style="stroke:#bcc3cc" fill="none" stroke-width="5.5" stroke-linecap="round" stroke-linejoin="round"/><polyline points="100,112 91.7,137.7 104.7,160.2 115.7,160.2" style="stroke:#1b2028" fill="none" stroke-width="7" stroke-linecap="round" stroke-linejoin="round"/><polyline points="100,112 119.1,81.5" style="stroke:#1b2028" fill="none" stroke-width="9" stroke-linecap="round" stroke-linejoin="round"/><circle cx="128.1" cy="67.1" r="9" style="fill:#1b2028"/><polyline points="119.1,81.5 119.8,103.5 119.8,124.5" style="stroke:#1b2028" fill="none" stroke-width="7" stroke-linecap="round" stroke-linejoin="round"/><line x1="96.8" y1="124.5" x2="142.8" y2="124.5" style="stroke:#e08c10;fill:none" stroke-width="3.4" stroke-linecap="round"/><ellipse cx="99.8" cy="124.5" rx="3.2" ry="9" style="fill:#e08c10"/><ellipse cx="139.8" cy="124.5" rx="3.2" ry="9" style="fill:#e08c10"/><text x="4" y="166" font-family="sans-serif" font-size="9" fill="#aaa">départ</text></g><g transform="translate(210,34) scale(1.02)"><rect x="0" y="0" width="200" height="170" fill="#f6f6f4"/><line x1="4" y1="150" x2="196" y2="150" style="stroke:#bbb" stroke-width="3" stroke-linecap="round"/><polyline points="100,97 108.3,122.7 95.3,145.2 106.3,145.2" style="stroke:#bcc3cc" fill="none" stroke-width="5.5" stroke-linecap="round" stroke-linejoin="round"/><polyline points="100,61 100.8,83 100.8,104" style="stroke:#bcc3cc" fill="none" stroke-width="5.5" stroke-linecap="round" stroke-linejoin="round"/><polyline points="100,97 100,124 100,150 111,150" style="stroke:#1b2028" fill="none" stroke-width="7" stroke-linecap="round" stroke-linejoin="round"/><polyline points="100,97 100,61" style="stroke:#1b2028" fill="none" stroke-width="9" stroke-linecap="round" stroke-linejoin="round"/><circle cx="100" cy="44" r="9" style="fill:#1b2028"/><polyline points="100,61 100.8,83 100.8,104" style="stroke:#1b2028" fill="none" stroke-width="7" stroke-linecap="round" stroke-linejoin="round"/><line x1="77.8" y1="104" x2="123.8" y2="104" style="stroke:#e08c10;fill:none" stroke-width="3.4" stroke-linecap="round"/><ellipse cx="80.8" cy="104" rx="3.2" ry="9" style="fill:#e08c10"/><ellipse cx="120.8" cy="104" rx="3.2" ry="9" style="fill:#e08c10"/><text x="4" y="166" font-family="sans-serif" font-size="9" fill="#aaa">fin</text></g></g><g transform="translate(430,220)"><text x="8" y="16" font-family="sans-serif" font-size="13" font-weight="700">5. Good morning</text><text x="8" y="30" font-family="sans-serif" font-size="10" fill="#888">sol · barre</text><g transform="translate(0,34) scale(1.02)"><rect x="0" y="0" width="200" height="170" fill="#f6f6f4"/><line x1="4" y1="150" x2="196" y2="150" style="stroke:#bbb" stroke-width="3" stroke-linecap="round"/><polyline points="100,97 100,124 100,150 111,150" style="stroke:#bcc3cc" fill="none" stroke-width="5.5" stroke-linecap="round" stroke-linejoin="round"/><polyline points="100,61 83.1,46.9 101.3,36.4" style="stroke:#bcc3cc" fill="none" stroke-width="5.5" stroke-linecap="round" stroke-linejoin="round"/><polyline points="100,97 100,124 100,150 111,150" style="stroke:#1b2028" fill="none" stroke-width="7" stroke-linecap="round" stroke-linejoin="round"/><polyline points="100,97 100,61" style="stroke:#1b2028" fill="none" stroke-width="9" stroke-linecap="round" stroke-linejoin="round"/><circle cx="100" cy="44" r="9" style="fill:#1b2028"/><polyline points="100,61 83.1,46.9 101.3,36.4" style="stroke:#1b2028" fill="none" stroke-width="7" stroke-linecap="round" stroke-linejoin="round"/><line x1="78.3" y1="36.4" x2="124.3" y2="36.4" style="stroke:#e08c10;fill:none" stroke-width="3.4" stroke-linecap="round"/><ellipse cx="81.3" cy="36.4" rx="3.2" ry="9" style="fill:#e08c10"/><ellipse cx="121.3" cy="36.4" rx="3.2" ry="9" style="fill:#e08c10"/><text x="4" y="166" font-family="sans-serif" font-size="9" fill="#aaa">départ</text></g><g transform="translate(210,34) scale(1.02)"><rect x="0" y="0" width="200" height="170" fill="#f6f6f4"/><line x1="4" y1="150" x2="196" y2="150" style="stroke:#bbb" stroke-width="3" stroke-linecap="round"/><polyline points="100,97 97.2,123.9 99,149.8 110,149.8" style="stroke:#bcc3cc" fill="none" stroke-width="5.5" stroke-linecap="round" stroke-linejoin="round"/><polyline points="129.1,75.8 112.3,61.7 130.5,51.2" style="stroke:#bcc3cc" fill="none" stroke-width="5.5" stroke-linecap="round" stroke-linejoin="round"/><polyline points="100,97 97.2,123.9 99,149.8 110,149.8" style="stroke:#1b2028" fill="none" stroke-width="7" stroke-linecap="round" stroke-linejoin="round"/><polyline points="100,97 129.1,75.8" style="stroke:#1b2028" fill="none" stroke-width="9" stroke-linecap="round" stroke-linejoin="round"/><circle cx="142.9" cy="65.8" r="9" style="fill:#1b2028"/><polyline points="129.1,75.8 112.3,61.7 130.5,51.2" style="stroke:#1b2028" fill="none" stroke-width="7" stroke-linecap="round" stroke-linejoin="round"/><line x1="107.5" y1="51.2" x2="153.5" y2="51.2" style="stroke:#e08c10;fill:none" stroke-width="3.4" stroke-linecap="round"/><ellipse cx="110.5" cy="51.2" rx="3.2" ry="9" style="fill:#e08c10"/><ellipse cx="150.5" cy="51.2" rx="3.2" ry="9" style="fill:#e08c10"/><text x="4" y="166" font-family="sans-serif" font-size="9" fill="#aaa">fin</text></g></g><g transform="translate(860,220)"><text x="8" y="16" font-family="sans-serif" font-size="13" font-weight="700">6. Fente bulgare</text><text x="8" y="30" font-family="sans-serif" font-size="10" fill="#888">banc · halteres</text><g transform="translate(0,34) scale(1.02)"><rect x="0" y="0" width="200" height="170" fill="#f6f6f4"/><line x1="4" y1="150" x2="196" y2="150" style="stroke:#bbb" stroke-width="3" stroke-linecap="round"/><rect x="44" y="110" width="104" height="7" rx="2" style="stroke:#999;fill:none"/><line x1="56" y1="117" x2="52" y2="150" style="stroke:#999;fill:none" stroke-width="3" stroke-linecap="round"/><line x1="138" y1="117" x2="142" y2="150" style="stroke:#999;fill:none" stroke-width="3" stroke-linecap="round"/><polyline points="108,112 84.6,125.5 81.9,151.4 92.2,155.1" style="stroke:#bcc3cc" fill="none" stroke-width="5.5" stroke-linecap="round" stroke-linejoin="round"/><polyline points="111.8,76.2 113.3,98.1 113.3,119.1" style="stroke:#bcc3cc" fill="none" stroke-width="5.5" stroke-linecap="round" stroke-linejoin="round"/><polyline points="108,112 129.8,127.9 128.9,153.9 139.9,153.9" style="stroke:#1b2028" fill="none" stroke-width="7" stroke-linecap="round" stroke-linejoin="round"/><polyline points="108,112 111.8,76.2" style="stroke:#1b2028" fill="none" stroke-width="9" stroke-linecap="round" stroke-linejoin="round"/><circle cx="113.5" cy="59.3" r="9" style="fill:#1b2028"/><polyline points="111.8,76.2 113.3,98.1 113.3,119.1" style="stroke:#1b2028" fill="none" stroke-width="7" stroke-linecap="round" stroke-linejoin="round"/><line x1="105.3" y1="119.1" x2="121.3" y2="119.1" style="stroke:#e08c10;fill:none" stroke-width="3" stroke-linecap="round"/><rect x="102.7" y="114.1" width="5.2" height="10" rx="2" style="fill:#e08c10"/><rect x="118.7" y="114.1" width="5.2" height="10" rx="2" style="fill:#e08c10"/><line x1="105.3" y1="119.1" x2="121.3" y2="119.1" style="stroke:#e08c10;fill:none" stroke-width="3" stroke-linecap="round"/><rect x="102.7" y="114.1" width="5.2" height="10" rx="2" style="fill:#e08c10"/><rect x="118.7" y="114.1" width="5.2" height="10" rx="2" style="fill:#e08c10"/><text x="4" y="166" font-family="sans-serif" font-size="9" fill="#aaa">départ</text></g><g transform="translate(210,34) scale(1.02)"><rect x="0" y="0" width="200" height="170" fill="#f6f6f4"/><line x1="4" y1="150" x2="196" y2="150" style="stroke:#bbb" stroke-width="3" stroke-linecap="round"/><rect x="44" y="110" width="104" height="7" rx="2" style="stroke:#999;fill:none"/><line x1="56" y1="117" x2="52" y2="150" style="stroke:#999;fill:none" stroke-width="3" stroke-linecap="round"/><line x1="138" y1="117" x2="142" y2="150" style="stroke:#999;fill:none" stroke-width="3" stroke-linecap="round"/><polyline points="108,98 84.6,111.5 91.8,136.5 102.1,140.3" style="stroke:#bcc3cc" fill="none" stroke-width="5.5" stroke-linecap="round" stroke-linejoin="round"/><polyline points="111.8,62.2 113.3,84.1 113.3,105.1" style="stroke:#bcc3cc" fill="none" stroke-width="5.5" stroke-linecap="round" stroke-linejoin="round"/><polyline points="108,98 110.8,124.9 109.9,150.8 120.9,150.8" style="stroke:#1b2028" fill="none" stroke-width="7" stroke-linecap="round" stroke-linejoin="round"/><polyline points="108,98 111.8,62.2" style="stroke:#1b2028" fill="none" stroke-width="9" stroke-linecap="round" stroke-linejoin="round"/><circle cx="113.5" cy="45.3" r="9" style="fill:#1b2028"/><polyline points="111.8,62.2 113.3,84.1 113.3,105.1" style="stroke:#1b2028" fill="none" stroke-width="7" stroke-linecap="round" stroke-linejoin="round"/><line x1="105.3" y1="105.1" x2="121.3" y2="105.1" style="stroke:#e08c10;fill:none" stroke-width="3" stroke-linecap="round"/><rect x="102.7" y="100.1" width="5.2" height="10" rx="2" style="fill:#e08c10"/><rect x="118.7" y="100.1" width="5.2" height="10" rx="2" style="fill:#e08c10"/><line x1="105.3" y1="105.1" x2="121.3" y2="105.1" style="stroke:#e08c10;fill:none" stroke-width="3" stroke-linecap="round"/><rect x="102.7" y="100.1" width="5.2" height="10" rx="2" style="fill:#e08c10"/><rect x="118.7" y="100.1" width="5.2" height="10" rx="2" style="fill:#e08c10"/><text x="4" y="166" font-family="sans-serif" font-size="9" fill="#aaa">fin</text></g></g></svg>